<svg width="9" height="14" viewBox="0 0 9 14" fill="none" xmlns="http://www.w3.org/2000/svg">
<path d="M5.01756 13.4751C4.20722 13.4861 3.39689 13.3218 2.66319 12.9824C1.97325 12.6647 1.40392 12.1392 1.00964 11.4931C0.604472 10.8251 0.407328 9.99281 0.407328 8.99632C0.396438 8.18599 0.604472 7.38664 1.00964 6.68581C1.4258 5.974 2.02801 5.38268 2.75082 4.9885C3.51729 4.56145 4.43714 4.35332 5.52125 4.35332C5.576 4.35332 5.65264 4.35332 5.75116 4.36431C5.84978 4.3752 5.95929 4.3752 6.09068 4.3862V0.925827C6.09068 0.84919 6.12356 0.805426 6.20019 0.805426H8.42307C8.47783 0.794434 8.5217 0.838198 8.53259 0.882063C8.53259 0.892953 8.53259 0.903945 8.53259 0.903945V11.3288C8.53259 11.526 8.54358 11.7449 8.55457 11.9859C8.57645 12.2158 8.58734 12.4348 8.59833 12.621C8.59833 12.6976 8.56546 12.7633 8.48882 12.7962C7.91939 13.0371 7.31708 13.2123 6.70388 13.3218C6.14544 13.4203 5.58699 13.4751 5.01756 13.4751ZM6.09068 11.2851V6.46679C5.99217 6.44491 5.89354 6.42303 5.79502 6.41204C5.67452 6.40105 5.55412 6.39016 5.43362 6.39016C5.00657 6.39016 4.57952 6.47779 4.19623 6.67482C3.82394 6.86097 3.5064 7.13475 3.2655 7.48516C3.02449 7.83557 2.90409 8.30649 2.90409 8.87592C2.8931 9.25921 2.95884 9.64239 3.09023 10.0038C3.19974 10.2995 3.36401 10.5622 3.58303 10.7813C3.79106 10.9784 4.04296 11.1317 4.32763 11.2193C4.62328 11.3178 4.92993 11.3617 5.23658 11.3617C5.40075 11.3617 5.55413 11.3507 5.69651 11.3397C5.83879 11.3507 5.95929 11.3288 6.09068 11.2851Z" fill="#FF61F6"/>
</svg>
